# File created by Blade
# Date/Time:  Thu Jan 22 19:08:58 2015
# Frame Rate: 120.000 fps
#------------------------------------------------------
:FULLY-SPECIFIED
:DEGREES
3203
root -2.784842 33.321591 -1.088377 12.159410 -4.569258 2.258185
RightUpLeg -7.138815 -8.512784 -1.685306
RightLeg -1.516827 -0.000000 0.000000
RightFoot -7.771348 -2.204389 3.522518
RightToeBase 5.421713 -0.000000 -0.000000
LeftUpLeg -6.320199 7.022008 2.932209
LeftLeg 0.320332 -0.000000 -0.000000
LeftFoot -7.310833 1.904401 -12.174245
LeftToeBase 7.889420 -0.000000 -0.000000
Spine -2.551729 -3.251583 0.631970
RightShoulder -32.086157 -30.367708 -17.481074
RightArm -1.366767 35.172569 57.553040
RightForeArm 17.463865 0.000000 11.731371
RightHand 15.875262 -0.000000 -16.173168
RightHandThumb1 -24.326973 -0.000000 -32.862282
LeftShoulder -32.312427 20.252252 25.526728
LeftArm -16.783574 -26.438504 -49.152396
LeftForeArm -2.021180 -0.000000 1.216450
LeftHand -4.889180 -0.000000 -4.040329
LeftHandThumb1 -26.253704 0.000000 33.147579
Head -8.983428 9.104813 -4.637161
3204
root -2.790792 33.321295 -1.092813 12.208101 -4.593668 2.251164
RightUpLeg -7.160064 -8.487791 -1.670068
RightLeg -1.591646 -0.000000 0.000000
RightFoot -7.723705 -2.194937 3.529920
RightToeBase 5.401593 -0.000000 -0.000000
LeftUpLeg -6.346729 6.955258 2.950881
LeftLeg 0.273264 -0.000000 -0.000000
LeftFoot -7.316074 1.999251 -12.207417
LeftToeBase 7.929273 -0.000000 -0.000000
Spine -2.584170 -3.287676 0.630682
RightShoulder -32.123334 -30.447787 -17.413652
RightArm -1.384260 35.074370 57.546226
RightForeArm 17.593080 0.000000 11.660941
RightHand 15.954327 -0.000000 -16.375012
RightHandThumb1 -24.326973 -0.000000 -32.862282
LeftShoulder -32.313232 20.316056 25.523785
LeftArm -16.773096 -26.313481 -49.026859
LeftForeArm -2.003456 0.000000 1.189121
LeftHand -5.059780 -0.000000 -3.689899
LeftHandThumb1 -26.253704 0.000000 33.147579
Head -8.925518 9.201690 -4.705166
3205
root -2.796381 33.320733 -1.093961 12.220498 -4.631226 2.242697
RightUpLeg -7.150152 -8.469646 -1.656920
RightLeg -1.652705 -0.000000 0.000000
RightFoot -7.680502 -2.156908 3.550679
RightToeBase 5.398241 -0.000000 -0.000000
LeftUpLeg -6.329578 6.917911 2.970183
LeftLeg 0.233561 -0.000000 -0.000000
LeftFoot -7.314123 2.063808 -12.225052
LeftToeBase 7.929862 -0.000000 -0.000000
Spine -2.586840 -3.315029 0.637949
RightShoulder -32.149285 -30.522005 -17.367784
RightArm -1.444346 35.016775 57.526983
RightForeArm 17.571928 -0.000000 11.659211
RightHand 15.922038 -0.000000 -16.751840
RightHandThumb1 -24.326973 -0.000000 -32.862282
LeftShoulder -32.302666 20.385549 25.517664
LeftArm -16.789076 -26.254905 -48.867025
LeftForeArm -2.048367 -0.000000 1.156313
LeftHand -5.178829 -0.000000 -3.472090
LeftHandThumb1 -26.253704 0.000000 33.147579
Head -8.862945 9.303455 -4.791485
3206
root -2.801024 33.319767 -1.093911 12.225556 -4.652381 2.237207
RightUpLeg -7.145762 -8.507651 -1.641024
RightLeg -1.679889 -0.000000 0.000000
RightFoot -7.669860 -2.084426 3.545224
RightToeBase 5.383919 -0.000000 -0.000000
LeftUpLeg -6.320618 6.884473 2.981638
LeftLeg 0.220109 -0.000000 -0.000000
LeftFoot -7.344860 2.125804 -12.273130
LeftToeBase 8.005100 -0.000000 -0.000000
Spine -2.587835 -3.356769 0.649607
RightShoulder -32.158695 -30.617838 -17.361946
RightArm -1.449245 34.957950 57.565155
RightForeArm 17.597809 -0.000000 11.613725
RightHand 15.981270 -0.000000 -17.360185
RightHandThumb1 -24.326973 -0.000000 -32.862282
LeftShoulder -32.290737 20.440807 25.524274
LeftArm -16.821318 -26.149912 -48.722571
LeftForeArm -2.328185 -0.000000 1.149577
LeftHand -5.210718 -0.000000 -3.444658
LeftHandThumb1 -26.253704 0.000000 33.147579
Head -8.782842 9.362395 -4.876074
3207
root -2.807594 33.319566 -1.094381 12.226533 -4.680459 2.224547
RightUpLeg -7.137736 -8.450625 -1.626820
RightLeg -1.702087 -0.000000 0.000000
RightFoot -7.656683 -2.128912 3.545392
RightToeBase 5.396579 -0.000000 -0.000000
LeftUpLeg -6.313244 6.853890 3.004111
LeftLeg 0.214330 -0.000000 -0.000000
LeftFoot -7.347810 2.206302 -12.234607
LeftToeBase 7.911508 -0.000000 -0.000000
Spine -2.580700 -3.401532 0.653969
RightShoulder -32.171146 -30.697835 -17.318211
RightArm -1.477481 34.917001 57.543931
RightForeArm 17.725422 -0.000000 11.581276
RightHand 15.934944 0.000000 -17.547035
RightHandThumb1 -24.326973 -0.000000 -32.862282
LeftShoulder -32.275034 20.484320 25.550167
LeftArm -16.889847 -26.109319 -48.528867
LeftForeArm -2.555928 -0.000000 1.087165
LeftHand -5.385612 -0.000000 -3.233744
LeftHandThumb1 -26.253704 0.000000 33.147579
Head -8.711798 9.426110 -4.927459
3208
root -2.813848 33.319891 -1.094858 12.221415 -4.709176 2.220425
RightUpLeg -7.136420 -8.365974 -1.623916
RightLeg -1.704047 -0.000000 0.000000
RightFoot -7.649363 -2.171985 3.535737
RightToeBase 5.420624 -0.000000 -0.000000
LeftUpLeg -6.310540 6.842980 3.018949
LeftLeg 0.231943 -0.000000 -0.000000
LeftFoot -7.353771 2.234461 -12.248196
LeftToeBase 7.898355 -0.000000 -0.000000
Spine -2.569305 -3.439861 0.640623
RightShoulder -32.157962 -30.765976 -17.314408
RightArm -1.540300 34.811001 57.544095
RightForeArm 17.943731 -0.000000 11.563209
RightHand 15.989918 -0.000000 -18.151120
RightHandThumb1 -24.326973 -0.000000 -32.862282
LeftShoulder -32.251612 20.540106 25.597732
LeftArm -16.951935 -26.129158 -48.352361
LeftForeArm -2.765158 -0.000000 1.004247
LeftHand -5.672451 -0.000000 -2.849300
LeftHandThumb1 -26.253704 0.000000 33.147579
Head -8.641708 9.476832 -4.940700
3209
root -2.817223 33.320223 -1.093186 12.205502 -4.711325 2.215991
RightUpLeg -7.118887 -8.331666 -1.622344
RightLeg -1.697825 -0.000000 0.000000
RightFoot -7.655784 -2.197237 3.533879
RightToeBase 5.390269 -0.000000 -0.000000
LeftUpLeg -6.306745 6.807656 3.031934
LeftLeg 0.266509 -0.000000 -0.000000
LeftFoot -7.393548 2.277242 -12.272061
LeftToeBase 7.961323 -0.000000 -0.000000
Spine -2.552278 -3.507375 0.649830
RightShoulder -32.152371 -30.848993 -17.322670
RightArm -1.569266 34.742625 57.556223
RightForeArm 18.239915 -0.000000 11.549314
RightHand 15.959128 0.000000 -18.720244
RightHandThumb1 -24.326973 -0.000000 -32.862282
LeftShoulder -32.220733 20.609517 25.630383
LeftArm -17.004374 -26.046310 -48.217843
LeftForeArm -3.004812 -0.000000 0.910770
LeftHand -5.813651 -0.000000 -2.548715
LeftHandThumb1 -26.253704 0.000000 33.147579
Head -8.566344 9.507283 -4.974371
3210
root -2.821187 33.320561 -1.092647 12.187183 -4.729856 2.217790
RightUpLeg -7.118201 -8.265858 -1.629850
RightLeg -1.664832 -0.000000 0.000000
RightFoot -7.671114 -2.243508 3.529050
RightToeBase 5.414037 -0.000000 -0.000000
LeftUpLeg -6.301618 6.803305 3.036010
LeftLeg 0.303897 -0.000000 -0.000000
LeftFoot -7.409754 2.298395 -12.279305
LeftToeBase 7.879048 -0.000000 -0.000000
Spine -2.524231 -3.561840 0.639525
RightShoulder -32.143879 -30.898747 -17.318706
RightArm -1.632152 34.648535 57.533812
RightForeArm 18.433035 -0.000000 11.564827
RightHand 15.881842 0.000000 -19.452625
RightHandThumb1 -24.326973 -0.000000 -32.862282
LeftShoulder -32.202870 20.685360 25.649285
LeftArm -17.040011 -25.998575 -48.059873
LeftForeArm -3.095626 -0.000000 0.788974
LeftHand -5.999417 -0.000000 -2.235957
LeftHandThumb1 -26.253704 0.000000 33.147579
Head -8.507735 9.546566 -4.998495
3211
root -2.825949 33.320978 -1.095345 12.166324 -4.797736 2.229924
RightUpLeg -7.161969 -8.114223 -1.652706
RightLeg -1.561509 -0.000000 0.000000
RightFoot -7.730256 -2.357628 3.504414
RightToeBase 5.385405 -0.000000 -0.000000
LeftUpLeg -6.295631 6.888793 3.021086
LeftLeg 0.346744 -0.000000 -0.000000
LeftFoot -7.409522 2.264853 -12.287813
LeftToeBase 7.925150 -0.000000 -0.000000
Spine -2.481089 -3.565572 0.587290
RightShoulder -32.145290 -30.940829 -17.270738
RightArm -1.697703 34.642551 57.468370
RightForeArm 18.662569 0.000000 11.525989
RightHand 15.904966 0.000000 -20.007954
RightHandThumb1 -24.326973 -0.000000 -32.862282
LeftShoulder -32.166232 20.740785 25.697976
LeftArm -17.116654 -26.054262 -47.872272
LeftForeArm -3.018287 -0.000000 0.700612
LeftHand -6.275235 -0.000000 -1.869674
LeftHandThumb1 -26.253704 0.000000 33.147579
Head -8.458729 9.559470 -5.002461
3212
root -2.832428 33.321529 -1.095964 12.146503 -4.804229 2.222731
RightUpLeg -7.176759 -8.076008 -1.644524
RightLeg -1.490139 -0.000000 0.000000
RightFoot -7.755881 -2.360068 3.522198
RightToeBase 5.422407 -0.000000 -0.000000
LeftUpLeg -6.310586 6.928677 3.037047
LeftLeg 0.419764 -0.000000 -0.000000
LeftFoot -7.430141 2.235875 -12.278811
LeftToeBase 7.899816 -0.000000 -0.000000
Spine -2.449557 -3.632779 0.584491
RightShoulder -32.153863 -31.034525 -17.249060
RightArm -1.732426 34.657673 57.470885
RightForeArm 18.817420 -0.000000 11.604624
RightHand 15.716474 -0.000000 -20.278801
RightHandThumb1 -24.326973 -0.000000 -32.862282
LeftShoulder -32.149221 20.838497 25.715222
LeftArm -17.132204 -25.807232 -47.811810
LeftForeArm -3.197534 -0.000000 0.697153
LeftHand -6.626159 -0.000000 -1.484354
LeftHandThumb1 -26.253704 0.000000 33.147579
Head -8.398970 9.628105 -5.038177
3213
root -2.834324 33.321411 -1.095160 12.130116 -4.768833 2.225949
RightUpLeg -7.181868 -8.078231 -1.643737
RightLeg -1.430593 -0.000000 0.000000
RightFoot -7.798443 -2.387450 3.530546
RightToeBase 5.420132 -0.000000 -0.000000
LeftUpLeg -6.343989 6.923255 3.037995
LeftLeg 0.507360 -0.000000 -0.000000
LeftFoot -7.460654 2.211480 -12.280099
LeftToeBase 7.881422 -0.000000 -0.000000
Spine -2.426947 -3.733083 0.602511
RightShoulder -32.164003 -31.130273 -17.240083
RightArm -1.724452 34.622904 57.449748
RightForeArm 19.074829 -0.000000 11.512119
RightHand 15.923294 -0.000000 -21.079008
RightHandThumb1 -24.326973 -0.000000 -32.862282
LeftShoulder -32.131540 20.962025 25.700907
LeftArm -17.087589 -25.477702 -47.820576
LeftForeArm -3.451371 -0.000000 0.613879
LeftHand -6.567778 -0.000000 -1.306097
LeftHandThumb1 -26.253704 0.000000 33.147579
Head -8.341134 9.714740 -5.110776
